# xmcd
#
# Track frame offsets:
#	150
#	24917
#	44392
#	64886
#	84654
#	102760
#	131363
#	145973
#	164362
#	182150
#	204937
#
# Disc length: 3124 seconds
#
# Revision: 0
# Processed by: cddbd v1.5.2PL0 Copyright (c) Steve Scherf et al.
# Submitted via: EasyCDDAExtractor 12.1.0.1
#
DISCID=900c320b
DTITLE=Kelly Price - Icon
DYEAR=2011
DGENRE=Soul
TTITLE0=Friend of Mine
TTITLE1=Secret Love
TTITLE2=Soul Of A Woman
TTITLE3=You Complete Me (feat Daron Jones and Quinnes Parker)
TTITLE4=It's Gonna Rain
TTITLE5=As We Lay
TTITLE6=You Should've Told Me
TTITLE7=Love Set's You Free (Kelly Price and Aaron Hall)
TTITLE8=Take It To The Head (feat Keith Murray)
TTITLE9=He Proposed
TTITLE10=You Brought The Sunshine (feat The Clark Sisters)
EXTD=
EXTT0=
EXTT1=
EXTT2=
EXTT3=
EXTT4=
EXTT5=
EXTT6=
EXTT7=
EXTT8=
EXTT9=
EXTT10=
PLAYORDER=
